<svg width="40" height="38" viewBox="0 0 40 38" fill="none" xmlns="http://www.w3.org/2000/svg">
<path d="M0.698433 34.2344L11.8267 1.55127L22.9549 34.2344H11.8267H0.698433Z" stroke="#B85B24"/>
<path d="M11.875 38V34.4375" stroke="#B85B24"/>
<path d="M29.7395 15.4375V30.2812V35.625M29.7395 38V35.625M29.7395 35.625L35.0833 30.2812" stroke="#B85B24"/>
<path d="M25.1851 6.58261C26.4928 4.58673 28.1297 2.91282 30.3333 0.70722C32.5226 2.89858 34.0204 4.4335 35.2565 6.35632C36.5487 8.36655 37.5686 10.8245 38.7444 14.9309C39.0225 18.9689 38.0483 22.5526 36.4308 25.116C34.7994 27.7013 32.5617 29.1875 30.3333 29.1875C28.1049 29.1875 25.8671 27.7013 24.2358 25.116C22.6166 22.5499 21.6421 18.9613 21.923 14.9181C22.8027 11.1192 23.8209 8.6648 25.1851 6.58261Z" stroke="#B85B24"/>
</svg>
