<svg width="255" height="109" viewBox="0 0 255 109" fill="none" xmlns="http://www.w3.org/2000/svg">
<path d="M0 18.8641C9.32912 18.8641 17.2863 0.600814 30.7312 1.00667C44.1761 1.41252 51.5845 18.8641 63.6575 18.8641" stroke="#B85B24" stroke-width="1.0961"/>
<path d="M63.6575 18.8706C72.9867 18.8706 80.9438 0.607284 94.3888 1.01314C107.834 1.41899 115.242 18.8706 127.315 18.8706" stroke="#B85B24" stroke-width="1.0961"/>
<path d="M0 36.7283C9.32912 36.7283 17.2863 18.4649 30.7312 18.8708C44.1761 19.2767 51.5845 36.7283 63.6575 36.7283" stroke="#B85B24" stroke-width="1.0961"/>
<path d="M63.6575 36.7347C72.9867 36.7347 80.9438 18.4714 94.3888 18.8773C107.834 19.2831 115.242 36.7347 127.315 36.7347" stroke="#B85B24" stroke-width="1.0961"/>
<path d="M0 54.5858C9.32912 54.5858 17.2863 36.3225 30.7312 36.7283C44.1761 37.1342 51.5845 54.5858 63.6575 54.5858" stroke="#B85B24" stroke-width="1.0961"/>
<path d="M63.6575 54.5923C72.9867 54.5923 80.9438 36.329 94.3888 36.7348C107.834 37.1407 115.242 54.5923 127.315 54.5923" stroke="#B85B24" stroke-width="1.0961"/>
<path d="M0 72.4432C9.32912 72.4432 17.2863 54.1799 30.7312 54.5858C44.1761 54.9916 51.5845 72.4432 63.6575 72.4432" stroke="#B85B24" stroke-width="1.0961"/>
<path d="M63.6575 72.4497C72.9867 72.4497 80.9438 54.1864 94.3888 54.5922C107.834 54.9981 115.242 72.4497 127.315 72.4497" stroke="#B85B24" stroke-width="1.0961"/>
<path d="M0 90.3006C9.32912 90.3007 17.2863 72.0373 30.7312 72.4432C44.1761 72.849 51.5845 90.3006 63.6575 90.3006" stroke="#B85B24" stroke-width="1.0961"/>
<path d="M63.6575 90.3071C72.9867 90.3071 80.9438 72.0438 94.3888 72.4497C107.834 72.8555 115.242 90.3071 127.315 90.3071" stroke="#B85B24" stroke-width="1.0961"/>
<path d="M0 108.158C9.32912 108.158 17.2863 89.8949 30.7312 90.3007C44.1761 90.7066 51.5845 108.158 63.6575 108.158" stroke="#B85B24" stroke-width="1.0961"/>
<path d="M63.6575 108.165C72.9867 108.165 80.9438 89.9014 94.3888 90.3072C107.834 90.7131 115.242 108.165 127.315 108.165" stroke="#B85B24" stroke-width="1.0961"/>
<path d="M127.315 18.8706C136.644 18.8706 144.601 0.607284 158.046 1.01314C171.491 1.41899 178.9 18.8706 190.973 18.8706" stroke="#B85B24" stroke-width="1.0961"/>
<path d="M190.973 18.8771C200.302 18.8771 208.259 0.613753 221.704 1.0196C235.149 1.42546 242.557 18.8771 254.63 18.8771" stroke="#B85B24" stroke-width="1.0961"/>
<path d="M127.315 36.735C136.644 36.735 144.601 18.4717 158.046 18.8775C171.491 19.2834 178.9 36.735 190.973 36.735" stroke="#B85B24" stroke-width="1.0961"/>
<path d="M190.973 36.7414C200.302 36.7414 208.259 18.4781 221.704 18.884C235.149 19.2898 242.557 36.7414 254.63 36.7414" stroke="#B85B24" stroke-width="1.0961"/>
<path d="M127.315 54.5925C136.644 54.5925 144.601 36.3292 158.046 36.7351C171.491 37.1409 178.9 54.5925 190.973 54.5925" stroke="#B85B24" stroke-width="1.0961"/>
<path d="M190.973 54.599C200.302 54.599 208.259 36.3357 221.704 36.7415C235.149 37.1474 242.557 54.599 254.63 54.599" stroke="#B85B24" stroke-width="1.0961"/>
<path d="M127.315 72.4499C136.644 72.4499 144.601 54.1866 158.046 54.5925C171.491 54.9983 178.9 72.4499 190.973 72.4499" stroke="#B85B24" stroke-width="1.0961"/>
<path d="M190.973 72.4564C200.302 72.4564 208.259 54.1931 221.704 54.599C235.149 55.0048 242.557 72.4564 254.63 72.4564" stroke="#B85B24" stroke-width="1.0961"/>
<path d="M127.315 90.3074C136.644 90.3074 144.601 72.0441 158.046 72.4499C171.491 72.8558 178.9 90.3074 190.973 90.3074" stroke="#B85B24" stroke-width="1.0961"/>
<path d="M190.973 90.3138C200.302 90.3138 208.259 72.0505 221.704 72.4564C235.149 72.8622 242.557 90.3138 254.63 90.3138" stroke="#B85B24" stroke-width="1.0961"/>
<path d="M127.315 108.165C136.644 108.165 144.601 89.9015 158.046 90.3073C171.491 90.7132 178.9 108.165 190.973 108.165" stroke="#B85B24" stroke-width="1.0961"/>
<path d="M190.973 108.171C200.302 108.171 208.259 89.9079 221.704 90.3138C235.149 90.7196 242.557 108.171 254.63 108.171" stroke="#B85B24" stroke-width="1.0961"/>
</svg>
