<svg width="194" height="88" viewBox="0 0 194 88" fill="none" xmlns="http://www.w3.org/2000/svg">
<path d="M-31.5738 -0.132143C-22.0917 -0.13214 -14.0041 -17.8965 -0.338756 -17.5017C13.3266 -17.1069 20.8564 -0.132143 33.1273 -0.132143" stroke="#082529" stroke-width="1.0961"/>
<path d="M33.1273 -0.126283C42.6094 -0.12628 50.697 -17.8906 64.3623 -17.4958C78.0277 -17.1011 85.5575 -0.126283 97.8284 -0.126283" stroke="#082529" stroke-width="1.0961"/>
<path d="M-31.5738 17.2438C-22.0917 17.2438 -14.0041 -0.520482 -0.338756 -0.125719C13.3266 0.269044 20.8564 17.2438 33.1273 17.2438" stroke="#082529" stroke-width="1.0961"/>
<path d="M33.1273 17.2497C42.6094 17.2497 50.697 -0.514622 64.3623 -0.11986C78.0277 0.274903 85.5575 17.2497 97.8284 17.2497" stroke="#082529" stroke-width="1.0961"/>
<path d="M-31.5738 34.6135C-22.0917 34.6135 -14.0041 16.8491 -0.338756 17.2439C13.3266 17.6387 20.8564 34.6135 33.1273 34.6135" stroke="#082529" stroke-width="1.0961"/>
<path d="M33.1273 34.6193C42.6094 34.6193 50.697 16.855 64.3623 17.2498C78.0277 17.6445 85.5575 34.6193 97.8284 34.6193" stroke="#082529" stroke-width="1.0961"/>
<path d="M-31.5738 51.983C-22.0917 51.983 -14.0041 34.2187 -0.338756 34.6134C13.3266 35.0082 20.8564 51.983 33.1273 51.983" stroke="#082529" stroke-width="1.0961"/>
<path d="M33.1273 51.9888C42.6094 51.9888 50.697 34.2245 64.3623 34.6193C78.0277 35.014 85.5575 51.9888 97.8284 51.9888" stroke="#082529" stroke-width="1.0961"/>
<path d="M-31.5738 69.3526C-22.0917 69.3526 -14.0041 51.5883 -0.338756 51.983C13.3266 52.3778 20.8564 69.3526 33.1273 69.3526" stroke="#082529" stroke-width="1.0961"/>
<path d="M33.1273 69.3585C42.6094 69.3585 50.697 51.5941 64.3623 51.9889C78.0277 52.3837 85.5575 69.3585 97.8284 69.3585" stroke="#082529" stroke-width="1.0961"/>
<path d="M-31.5738 86.7222C-22.0917 86.7222 -14.0041 68.9579 -0.338756 69.3527C13.3266 69.7474 20.8564 86.7222 33.1273 86.7222" stroke="#082529" stroke-width="1.0961"/>
<path d="M33.1273 86.7281C42.6094 86.7281 50.697 68.9638 64.3623 69.3585C78.0277 69.7533 85.5575 86.7281 97.8284 86.7281" stroke="#082529" stroke-width="1.0961"/>
<path d="M97.8284 -0.126283C107.31 -0.12628 115.398 -17.8906 129.063 -17.4958C142.729 -17.1011 150.259 -0.126283 162.53 -0.126283" stroke="#082529" stroke-width="1.0961"/>
<path d="M162.53 -0.120546C172.012 -0.120543 180.099 -17.8849 193.765 -17.4901C207.43 -17.0953 214.96 -0.120546 227.231 -0.120546" stroke="#082529" stroke-width="1.0961"/>
<path d="M97.8284 17.2504C107.31 17.2504 115.398 -0.51389 129.063 -0.119127C142.729 0.275635 150.259 17.2504 162.53 17.2504" stroke="#082529" stroke-width="1.0961"/>
<path d="M162.53 17.2562C172.012 17.2562 180.099 -0.508152 193.765 -0.11339C207.43 0.281373 214.96 17.2562 227.231 17.2562" stroke="#082529" stroke-width="1.0961"/>
<path d="M97.8284 34.6201C107.31 34.6201 115.398 16.8557 129.063 17.2505C142.729 17.6453 150.259 34.6201 162.53 34.6201" stroke="#082529" stroke-width="1.0961"/>
<path d="M162.53 34.6259C172.012 34.6259 180.099 16.8616 193.765 17.2564C207.43 17.6511 214.96 34.6259 227.231 34.6259" stroke="#082529" stroke-width="1.0961"/>
<path d="M97.8284 51.9896C107.31 51.9896 115.398 34.2252 129.063 34.62C142.729 35.0148 150.259 51.9896 162.53 51.9896" stroke="#082529" stroke-width="1.0961"/>
<path d="M162.53 51.9954C172.012 51.9954 180.099 34.2311 193.765 34.6259C207.43 35.0206 214.96 51.9954 227.231 51.9954" stroke="#082529" stroke-width="1.0961"/>
<path d="M97.8284 69.3591C107.31 69.3591 115.398 51.5948 129.063 51.9895C142.729 52.3843 150.259 69.3591 162.53 69.3591" stroke="#082529" stroke-width="1.0961"/>
<path d="M162.53 69.3648C172.012 69.3648 180.099 51.6005 193.765 51.9953C207.43 52.39 214.96 69.3648 227.231 69.3648" stroke="#082529" stroke-width="1.0961"/>
<path d="M97.8284 86.7287C107.31 86.7287 115.398 68.9644 129.063 69.3591C142.729 69.7539 150.259 86.7287 162.53 86.7287" stroke="#082529" stroke-width="1.0961"/>
<path d="M162.53 86.7347C172.012 86.7347 180.099 68.9704 193.765 69.3651C207.43 69.7599 214.96 86.7347 227.231 86.7347" stroke="#082529" stroke-width="1.0961"/>
</svg>
